<?xml version="1.0" encoding="utf-8"?>
<!-- Generator: Adobe Illustrator 23.1.1, SVG Export Plug-In . SVG Version: 6.00 Build 0)  -->
<svg version="1.1" id="Layer_1" xmlns="http://www.w3.org/2000/svg" xmlns:xlink="http://www.w3.org/1999/xlink" x="0px" y="0px"
	 viewBox="0 0 300.1 59.1" style="enable-background:new 0 0 300.1 59.1;" xml:space="preserve">
<style type="text/css">
	.st0{fill:url(#SVGID_1_);}
	.st1{fill:url(#SVGID_2_);}
	.st2{fill:url(#SVGID_3_);}
	.st3{fill:url(#SVGID_4_);}
	.st4{fill:url(#SVGID_5_);}
	.st5{fill:url(#SVGID_6_);}
	.st6{opacity:0.8;fill:#004052;}
</style>
<title>abtasty-logo</title>
<g>
	
		<linearGradient id="SVGID_1_" gradientUnits="userSpaceOnUse" x1="-47.0194" y1="-8.0716" x2="335.4406" y2="134.5984" gradientTransform="matrix(1 0 0 -1 0 62)">
		<stop  offset="0" style="stop-color:#006C8A"/>
		<stop  offset="0.25" style="stop-color:#217981"/>
		<stop  offset="0.5" style="stop-color:#009CB2"/>
		<stop  offset="0.75" style="stop-color:#00D4D4"/>
		<stop  offset="1" style="stop-color:#00F3F3"/>
	</linearGradient>
	<path class="st0" d="M95.9,21c0.5-0.4,1-0.9,1.3-1.4c1.5-1.8,2.5-3.9,3-6.1c0.7-3.6-0.3-7.3-2.8-10C95,1,92,0,87,0H66.9l-3.2,18H55
		l2.3,9.3h4.8l-3.6,20.6h23.3c5.6,0,9.8-1.4,13.3-4.3c3.1-2.7,5.1-6.4,5.7-10.4c0.8-3.9-0.4-8-3.2-10.8C97.1,21.7,96.5,21.3,95.9,21
		z M76.7,9.3h7.7c2.7,0,3.6,0.7,4.2,1.4c0.6,0.8,0.8,1.8,0.6,2.8c-0.2,1.1-0.8,2.2-1.7,2.9c-0.9,0.8-2,1.5-4.8,1.5h-7.4L76.7,9.3z
		 M89.7,32.8c-0.3,1.5-1.1,2.9-2.2,3.9c-1.4,1.3-3.2,1.9-5.9,1.9h-10l1.6-9.2l0.4-2.1h10.2c3.4,0,4.5,1,5.1,1.8l0,0
		C89.7,30.1,89.9,31.5,89.7,32.8z"/>
	
		<linearGradient id="SVGID_2_" gradientUnits="userSpaceOnUse" x1="-51.0559" y1="2.7291" x2="331.4041" y2="145.4091" gradientTransform="matrix(1 0 0 -1 0 62)">
		<stop  offset="0" style="stop-color:#006C8A"/>
		<stop  offset="0.25" style="stop-color:#217981"/>
		<stop  offset="0.5" style="stop-color:#009CB2"/>
		<stop  offset="0.75" style="stop-color:#00D4D4"/>
		<stop  offset="1" style="stop-color:#00F3F3"/>
	</linearGradient>
	<path class="st1" d="M32.3,0L0,47.9h12.9l7.6-11.3h18.8l2.8,11.3H55L43,0H32.3z M26.8,27.3l7.5-11.1L37,27.3H26.8z"/>
	
		<linearGradient id="SVGID_3_" gradientUnits="userSpaceOnUse" x1="-41.0188" y1="-24.1531" x2="341.4311" y2="118.5269" gradientTransform="matrix(1 0 0 -1 0 62)">
		<stop  offset="0" style="stop-color:#006C8A"/>
		<stop  offset="0.25" style="stop-color:#217981"/>
		<stop  offset="0.5" style="stop-color:#009CB2"/>
		<stop  offset="0.75" style="stop-color:#00D4D4"/>
		<stop  offset="1" style="stop-color:#00F3F3"/>
	</linearGradient>
	<polygon class="st2" points="161.4,0 116.6,0 115.2,7.8 133.2,7.8 126.1,47.9 134.9,47.9 142,7.8 160,7.8 	"/>
	
		<linearGradient id="SVGID_4_" gradientUnits="userSpaceOnUse" x1="-33.2742" y1="-44.9289" x2="349.1859" y2="97.7511" gradientTransform="matrix(1 0 0 -1 0 62)">
		<stop  offset="0" style="stop-color:#006C8A"/>
		<stop  offset="0.25" style="stop-color:#217981"/>
		<stop  offset="0.5" style="stop-color:#009CB2"/>
		<stop  offset="0.75" style="stop-color:#00D4D4"/>
		<stop  offset="1" style="stop-color:#00F3F3"/>
	</linearGradient>
	<path class="st3" d="M180.6,17.9c-2.6-4.4-6.7-6.6-12.4-6.6c-5.6-0.1-11,2.2-14.8,6.4c-3.9,4.2-6.1,9.7-6,15.4
		c-0.2,4.2,1.2,8.3,4,11.5c2.7,2.9,6.4,4.3,11.2,4.3c5.3,0.1,10.3-2.2,13.6-6.3l-0.7,5.2h8.2l6.3-35.6h-8.4L180.6,17.9z M174.9,37.5
		c-2.5,2.6-6,4-9.6,3.9c-5.9,0-9.4-3.5-9.4-9.3c-0.1-3.5,1.3-6.9,3.7-9.4c2.5-2.6,6-4,9.6-3.9c6,0,9.5,3.6,9.5,9.3
		C178.8,31.6,177.4,35,174.9,37.5z"/>
	
		<linearGradient id="SVGID_5_" gradientUnits="userSpaceOnUse" x1="-28.6926" y1="-57.1931" x2="353.7575" y2="85.4868" gradientTransform="matrix(1 0 0 -1 0 62)">
		<stop  offset="0" style="stop-color:#006C8A"/>
		<stop  offset="0.25" style="stop-color:#217981"/>
		<stop  offset="0.5" style="stop-color:#009CB2"/>
		<stop  offset="0.75" style="stop-color:#00D4D4"/>
		<stop  offset="1" style="stop-color:#00F3F3"/>
	</linearGradient>
	<path class="st4" d="M212.3,17.7c5.8,0,8,1.5,8.1,4.7v0.4l7.5-3.4c-0.7-5.8-6.1-8.2-14.9-8.2c-11.5,0-18.6,4-18.6,12.4
		c0,5.8,3.5,8.6,10.9,9.2l7.5,0.7c3.5,0.3,5,1.2,5,3.6c0,3.5-3.3,5.2-9.9,5.2c-6,0-8.4-1.4-8.6-4.7v-0.3c0,0-7.6,3.3-7.6,3.4
		c0.7,5.9,6.2,8.1,15,8.1c12.3,0,20-4.1,20-12.9c0-5.8-3.3-8.1-11-8.9l-7.4-0.7c-3.4-0.3-5.1-1.5-5.1-3.8
		C203.1,19.4,206.1,17.7,212.3,17.7z"/>
	
		<linearGradient id="SVGID_6_" gradientUnits="userSpaceOnUse" x1="-22.3515" y1="-74.196" x2="360.0985" y2="68.484" gradientTransform="matrix(1 0 0 -1 0 62)">
		<stop  offset="0" style="stop-color:#006C8A"/>
		<stop  offset="0.25" style="stop-color:#217981"/>
		<stop  offset="0.5" style="stop-color:#009CB2"/>
		<stop  offset="0.75" style="stop-color:#00D4D4"/>
		<stop  offset="1" style="stop-color:#00F3F3"/>
	</linearGradient>
	<path class="st5" d="M291,12.3l-16.9,26.9L267,12.3h-18l1.8-10.2l-9.4,4.1l-1.1,6.1h-6.8l-1.4,7.3h6.9L236.4,35
		c-1.4,8.1,2.4,13.9,11.7,13.9h7.2l-2.2-7.8h-2.6c-4.8,0-6.4-2-5.5-6.7s2.6-14.7,2.6-14.7h12.7l7.8,29.3L261.8,59h9l29.2-46.7
		L291,12.3z"/>
	<polygon class="st6" points="41.1,43.6 52.6,38.5 52.1,36.6 39.3,36.6 	"/>
	<polygon class="st6" points="60.7,34.9 73.2,29.3 73.6,27.3 62.1,27.3 	"/>
</g>
</svg>
